<?xml version="1.0" encoding="UTF-8" standalone="no"?>
<!-- Created with Inkscape (http://www.inkscape.org/) -->

<svg
   width="100"
   height="100"
   viewBox="0 0 26.458333 26.458333"
   version="1.1"
   id="svg1"
   xml:space="preserve"
   xmlns:inkscape="http://www.inkscape.org/namespaces/inkscape"
   xmlns:sodipodi="http://sodipodi.sourceforge.net/DTD/sodipodi-0.dtd"
   xmlns="http://www.w3.org/2000/svg"
   xmlns:svg="http://www.w3.org/2000/svg"><sodipodi:namedview
     id="namedview1"
     pagecolor="#ffffff"
     bordercolor="#000000"
     borderopacity="0.25"
     inkscape:showpageshadow="2"
     inkscape:pageopacity="0.0"
     inkscape:pagecheckerboard="0"
     inkscape:deskcolor="#d1d1d1"
     inkscape:document-units="mm" /><defs
     id="defs1" /><g
     inkscape:label="Camada 1"
     inkscape:groupmode="layer"
     id="layer1"><path
       style="fill:#000000;stroke-width:3.33863"
       d="m 15.254646,26.134145 c 0,-0.152133 -0.06877,-0.165824 -0.493445,-0.09826 -0.271409,0.04321 -1.028,0.07568 -1.681354,0.07219 -0.948672,-0.005 -1.251532,-0.04445 -1.503824,-0.195624 -0.198284,-0.118812 -0.53096,-0.191607 -0.893422,-0.195483 -0.412269,-0.0042 -0.629525,-0.05961 -0.7593148,-0.192816 C 9.6954756,25.290333 9.3851815,25.272411 9.4613037,25.497482 9.5733588,25.828811 9.2343097,25.640902 8.6916946,25.070937 8.1943261,24.548503 8.0890343,24.484438 7.7277392,24.484438 7.3620971,24.484438 7.278339,24.431528 6.8775726,23.9472 6.4827523,23.470085 6.422518,23.431231 6.339287,23.599981 6.2520518,23.776794 6.2278588,23.771531 5.9900658,23.524055 5.8495506,23.37779 5.3764759,22.712077 4.9388079,22.044677 4.5011429,21.377272 3.9256986,20.552069 3.6600449,20.21089 3.3944033,19.86971 2.9444137,19.221704 2.6600943,18.770878 2.2271303,18.084348 2.1477268,17.888545 2.1712938,17.565538 2.1944875,17.249679 2.0875146,16.967575 1.5811337,16.006885 1.241068,15.361734 0.9424964,14.713921 0.9176439,14.567296 0.8928855,14.420675 0.7844305,14.01279 0.67682597,13.660892 0.39855263,12.750761 0.40231391,12.706511 0.7612964,12.667368 c 0.4050942,-0.04417 0.974502,0.33581 1.55089,1.034921 0.7256708,0.880192 0.8416754,1.600811 0.3478829,2.161047 -0.1550909,0.17596 -0.2819722,0.334779 -0.2819722,0.352915 0,0.01814 0.1804484,0.0637 0.4010046,0.101245 0.2205687,0.03752 0.5245191,0.179978 0.675482,0.316535 l 0.2744809,0.248291 -0.2055231,0.296443 c -0.25044,0.361225 -0.2770829,1.027475 -0.049651,1.241019 0.1995365,0.187339 0.4972998,0.927016 0.4999792,1.242011 0.00144,0.162695 0.08353,0.277702 0.2494368,0.349287 0.3527886,0.152169 0.5972037,0.0288 0.6611205,-0.333853 0.03407,-0.193313 0.1137802,-0.311343 0.210194,-0.311343 0.085411,0 0.249312,-0.07472 0.3642106,-0.166002 0.1148756,-0.09129 0.2088769,-0.121159 0.2088769,-0.06633 0,0.05484 -0.095165,0.175391 -0.2114785,0.267923 -0.2065268,0.164331 -0.1769376,0.261663 0.1263476,0.415855 0.03072,0.01565 0.037018,0.204978 0.014102,0.420791 -0.028205,0.265361 -0.081341,0.375205 -0.1638365,0.339295 -0.067075,-0.02917 -0.1483201,-0.0046 -0.1805425,0.05441 -0.084538,0.155191 0.4672667,0.829175 0.7802383,0.952958 0.2611277,0.103272 0.2657674,0.09815 0.256082,-0.283783 -0.00912,-0.362808 0.010339,-0.391175 0.2925975,-0.422107 0.467762,-0.05128 1.1023212,0.321728 1.391888,0.818155 0.217465,0.372826 0.3196887,0.446751 0.7617409,0.550869 0.2808126,0.06614 0.9004524,0.109708 1.3769747,0.09683 1.126611,-0.03059 2.397597,0.104161 2.718022,0.287908 0.3566,0.204516 1.111175,0.185313 1.388819,-0.0352 0.165905,-0.131827 0.445536,-0.185241 1.031299,-0.196977 0.660186,-0.01316 0.941434,-0.0772 1.575228,-0.358358 0.49496,-0.219559 0.855107,-0.454913 1.00462,-0.656509 0.138415,-0.186628 0.257899,-0.268633 0.294258,-0.201955 0.03724,0.06835 0.148133,0.006 0.283258,-0.15953 0.122148,-0.149538 0.309617,-0.271869 0.416636,-0.271869 0.107008,0 0.373375,-0.181223 0.591918,-0.402719 0.436343,-0.442232 1.330027,-0.936085 1.872021,-1.034481 0.230599,-0.04186 0.430201,-0.175425 0.595721,-0.3986 0.249969,-0.337054 0.269935,-0.5977 0.09319,-1.217007 -0.05394,-0.189012 0.0035,-0.269488 0.342658,-0.481467 0.241757,-0.151031 0.418688,-0.343207 0.435128,-0.472669 0.01536,-0.119985 0.152898,-0.302062 0.305951,-0.404633 0.341424,-0.228803 0.578042,-0.723425 0.578042,-1.208273 0,-0.348114 0.01222,-0.36099 0.278869,-0.294522 0.478897,0.119344 0.918162,-0.548661 0.929443,-1.413419 0.0044,-0.347153 1.009117,-3.7867557 1.020989,-3.4957564 0.0023,0.058637 -0.05821,0.5385104 -0.134623,1.0663604 -0.07644,0.527849 -0.139136,0.995714 -0.139357,1.0397 -1.96e-4,0.04399 -0.06378,0.07998 -0.141331,0.07998 -0.07754,0 -0.142364,0.05999 -0.144025,0.133285 -0.02289,0.998033 -0.09375,1.502583 -0.281158,1.999426 -0.257242,0.681982 -1.100171,2.245034 -1.868979,3.465672 -0.295513,0.469198 -0.587174,1.049285 -0.648117,1.289084 -0.11895,0.468015 -0.617217,1.323498 -0.770866,1.323498 -0.05137,0 -0.09341,0.164259 -0.09341,0.365023 0,0.460745 -0.339682,0.863247 -1.221804,1.447754 -0.353675,0.234352 -0.773289,0.550435 -0.932479,0.702405 -0.278462,0.265859 -0.289433,0.267887 -0.289433,0.05356 0,-0.344949 -0.226398,-0.265078 -0.60844,0.214721 -0.223985,0.281294 -0.332073,0.508064 -0.302753,0.635236 0.03432,0.148968 -0.02946,0.225888 -0.258558,0.311663 -0.167284,0.06262 -0.688152,0.485577 -1.157499,0.939879 -1.019983,0.987275 -1.620299,1.408995 -1.620299,1.138255 z M 12.667317,20.451253 C 12.075661,20.20129 11.51158,19.802636 10.799672,19.131343 10.494724,18.843827 10.12591,18.538537 9.9800532,18.452962 9.7451912,18.315159 9.5213057,18.007124 9.5213057,17.821747 c 0,-0.03591 0.095165,0.0085 0.2114794,0.0984 2.6225759,2.030141 2.9308839,2.207996 3.8220039,2.204799 0.847994,-0.0031 1.46609,-0.280617 2.173772,-0.976177 0.311717,-0.3064 0.588069,-0.532945 0.614079,-0.50344 0.02602,0.02952 -0.2017,0.340574 -0.506036,0.691249 -0.9859,1.136058 -2.149771,1.545406 -3.169287,1.114675 z M 7.6973983,16.375978 c 0.1250631,-0.141891 0.2504401,-0.191819 0.3608776,-0.14374 0.1531478,0.06668 0.1480704,0.08699 -0.053251,0.213655 -0.3599752,0.226422 -0.5339608,0.186912 -0.307612,-0.06992 z m 1.541939,0.06927 c 0,-0.08148 -0.079142,-0.258997 -0.1758414,-0.394533 l -0.1758403,-0.246407 -0.173929,0.367871 c -0.1697597,0.359107 -0.1747748,0.361521 -0.2095671,0.10128 -0.019747,-0.14662 -0.082973,-0.299927 -0.1407975,-0.34068 -0.138792,-0.0978 0.3389771,-0.770865 0.8848293,-1.24651 l 0.4141384,-0.360867 0.053069,0.307538 c 0.076386,0.442541 -0.03721,0.740576 -0.2676481,0.702369 -0.1791638,-0.02987 -0.188065,0.0092 -0.1398259,0.613159 0.028205,0.354693 0.024451,0.644884 -0.00845,0.644884 -0.033034,0 -0.060058,-0.06668 -0.060058,-0.148151 z M 5.5267649,12.583885 C 5.4233604,12.555786 5.2383357,12.50839 5.1155699,12.478373 4.9159081,12.429586 4.8975087,12.380115 4.9413596,12.009249 4.9863644,11.628515 4.9686236,11.58604 4.7232668,11.489028 4.576357,11.430919 4.2693719,11.188034 4.0410541,10.949261 3.812744,10.7105 3.558139,10.51513 3.4752737,10.51513 c -0.082877,0 -0.1939258,-0.09168 -0.2467719,-0.203733 C 3.1756538,10.199343 2.9748016,9.9971388 2.7821737,9.8620818 2.4379896,9.6207245 2.4359457,9.6153907 2.6635042,9.5518061 2.8477138,9.5003117 2.8911251,9.426024 2.8757987,9.1884039 2.8519714,8.8193272 2.6146383,8.5055052 2.2136337,8.3129667 2.0128429,8.2165587 1.9081539,8.0926621 1.9081539,7.9514144 1.9081539,7.6669559 1.4560898,6.6625465 0.9459755,5.8136312 0.3647635,4.8463988 0.3791539,4.8875578 0.64215652,4.9445952 0.9151959,5.0038082 0.9310244,4.8911422 0.73599652,4.2769452 0.5461757,3.6791172 0.54432674,2.4108116 0.73330852,2.4108116 c 0.0775488,0 0.14098558,-0.074141 0.14098558,-0.1647927 0,-0.1296585 0.068141,-0.1502841 0.3195851,-0.096764 0.3001201,0.063869 0.3235566,0.047472 0.384819,-0.2689531 0.087542,-0.4521851 0.2930679,-0.5189736 0.5834152,-0.1895796 0.2267751,0.2572892 0.2493735,0.2618767 0.4965764,0.1009242 0.2372439,-0.1544801 0.3003399,-0.1534843 0.7519115,0.012091 0.2711267,0.099324 0.6123895,0.180618 0.7583901,0.180618 0.1722682,0 0.4101889,0.142105 0.6777612,0.4048598 C 5.1748547,2.7114048 5.41228,2.8337798 6.00938,2.9885049 6.6684826,3.159308 6.7740653,3.2197275 6.8778202,3.485683 7.0045451,3.8104678 7.51107,4.2237093 7.782463,4.2237093 c 0.091181,0 0.3560823,0.2159309 0.5887057,0.4798626 0.4125995,0.4681209 0.6161762,0.5770002 0.7205618,0.3853756 0.028522,-0.052205 0.2097236,-0.030586 0.4050011,0.048653 0.1944279,0.07873 0.4264606,0.1452346 0.5155964,0.1477949 0.08915,0.00259 0.227025,0.1472255 0.306452,0.3214425 0.219754,0.4821493 0.488975,0.6048584 0.740008,0.3373026 0.215491,-0.2296924 0.81245,-0.5474044 1.028499,-0.5474044 0.07485,0 0.121834,0.099572 0.112776,0.2390458 -0.06517,1.0036404 0.723292,1.8936581 1.677577,1.8936581 0.223014,0 0.261662,-0.028445 0.173961,-0.1279507 -0.06203,-0.070378 -0.112777,-0.1891171 -0.112777,-0.2638684 0,-0.2124105 0.555989,-0.4856591 0.896402,-0.4405708 0.285922,0.037872 0.315266,0.011741 0.415799,-0.3688386 0.05949,-0.2252841 0.179822,-0.4356844 0.267366,-0.4675766 0.08758,-0.032006 0.294385,-0.1348502 0.459568,-0.2287689 0.25254,-0.1435977 0.336568,-0.1487904 0.527864,-0.032717 0.200164,0.1215504 0.350485,0.090259 1.25047,-0.2602761 0.562627,-0.2191314 1.349808,-0.5837029 1.749289,-0.8101563 0.399481,-0.2264572 0.814591,-0.4117304 0.922462,-0.4117304 0.107887,0 0.307925,-0.1507104 0.444529,-0.33492 0.436706,-0.5888279 0.701586,-0.7087847 1.433817,-0.6493434 0.670207,0.054413 0.973914,-0.063197 0.880047,-0.3407165 -0.05726,-0.1693449 0.399178,-0.5300408 0.480898,-0.3800159 0.03159,0.058003 0.134404,0.1054406 0.228467,0.1054406 0.100991,0 0.218311,0.1295511 0.286515,0.3163565 0.200008,0.5478181 0.332166,0.587708 0.55127,0.1663938 0.107574,-0.2068626 0.238497,-0.3761221 0.290966,-0.3761221 0.133559,0 0.225492,0.4818863 0.161331,0.8457396 -0.04805,0.2725446 -0.03184,0.2985049 0.153429,0.2459439 0.195713,-0.055546 0.198659,-0.047578 0.05338,0.1445587 -0.08457,0.1118419 -0.263006,0.4507237 -0.396514,0.7530622 -0.204397,0.4628649 -0.220413,0.5594322 -0.10143,0.6112425 0.214548,0.093418 -0.06438,0.6318929 -0.681144,1.3150835 -0.542738,0.6011778 -0.553657,0.6975503 -0.139952,1.2350733 0.136662,0.1775597 0.126851,0.2116272 -0.129576,0.4493683 -0.160828,0.1491455 -0.221447,0.2588543 -0.144276,0.261094 0.297769,0.00854 -0.0079,0.1291958 -0.546245,0.2155401 -0.473139,0.075888 -0.616656,0.1496438 -0.817192,0.4200335 -0.133809,0.1804051 -0.302941,0.3279859 -0.375885,0.3279859 -0.07294,0 -0.132617,0.047971 -0.132617,0.1066502 0,0.058637 0.08952,0.1066492 0.19891,0.1066492 0.179069,0 0.165027,0.042566 -0.140987,0.4268509 -0.346115,0.434657 -0.421908,0.63951 -0.236617,0.63951 0.171453,0 0.742622,0.33741 0.742622,0.438693 0,0.05195 -0.458935,0.09448 -1.019855,0.09448 -0.560922,0 -1.144428,0.04925 -1.296683,0.109494 -0.242979,0.09609 -0.272412,0.152241 -0.240848,0.459134 0.02351,0.229267 -0.01536,0.397975 -0.11309,0.490013 -0.131739,0.124039 -0.142678,0.104054 -0.09403,-0.171871 0.07466,-0.423532 -0.0457,-0.513752 -1.096075,-0.821692 -1.578576,-0.46278 -1.528165,-0.46545 -1.886003,0.09986 l -0.310902,0.491186 -0.08466,-0.288157 c -0.061,-0.207645 -0.04254,-0.388405 0.06613,-0.646914 0.170387,-0.405358 0.07642,-0.89406 -0.171922,-0.89406 -0.192767,0 -0.505865,0.368515 -0.664403,0.781991 -0.128291,0.334636 -0.129514,0.33172 -0.13315,-0.323363 -0.0035,-0.6200678 -0.02257,-0.6769348 -0.309148,-0.9172966 -0.168005,-0.1409318 -0.37948,-0.2858457 -0.469946,-0.3219763 -0.09046,-0.036163 -0.164494,-0.1375526 -0.164494,-0.2252831 0,-0.2602771 -0.322475,-0.380326 -1.021581,-0.380326 -0.725649,0 -1.14017,0.1293024 -1.14017,0.3557058 0,0.081254 -0.109516,0.3308313 -0.243418,0.5546495 -0.176029,0.2942735 -0.228718,0.4902867 -0.190322,0.7080157 0.07423,0.421002 -0.01787,0.375027 -0.197625,-0.09883 l -0.1518,-0.399884 -0.06338,0.32923 c -0.09952,0.516948 -0.166438,0.593004 -0.388674,0.441713 -0.166031,-0.113016 -0.21264,-0.09762 -0.337806,0.111806 -0.13246,0.221549 -0.159385,0.228341 -0.306514,0.07728 -0.144089,-0.147973 -0.173929,-0.148364 -0.279717,-0.0036 -0.09626,0.131578 -0.08221,0.316855 0.07495,0.989071 0.164777,0.704823 0.170137,0.787742 0.03633,0.560584 -0.2930038,-0.497373 -0.7520899,-0.959721 -0.9529594,-0.959721 -0.2606574,0 -1.2093114,0.545463 -1.6040654,0.922322 -0.2828813,0.270055 -0.3831639,0.29758 -1.165373,0.319877 -0.4707266,0.01352 -0.9404537,0.0014 -1.0438419,-0.02667 z M 8.1114676,7.7209636 C 8.432074,7.5856151 8.7693912,7.2111538 8.7693912,6.9906178 c 0,-0.2396505 -0.1857773,-0.404518 -0.5486583,-0.486861 C 7.9706691,6.4470016 7.867616,6.4955968 7.5538764,6.8170201 7.1344225,7.2469608 6.6448867,7.4005349 6.312071,7.206588 6.1903305,7.135644 5.9353515,6.9091849 5.7454779,6.7033437 5.4664836,6.4008909 5.3530308,6.3425517 5.1540227,6.3992196 4.3292577,6.6340691 5.2511897,7.524179 6.6546346,7.8480436 7.057539,7.9410003 7.7290054,7.8825364 8.1114676,7.7209809 Z M 20.301057,7.054117 C 21.258925,6.5570675 21.639336,5.9366677 21.12285,5.7138776 20.678484,5.5221993 20.447205,5.5896604 20.178479,5.9893736 19.69246,6.7123187 19.09452,6.8625884 18.506214,6.4096317 18.098361,6.0956216 18.005498,6.0841352 17.776256,6.3195165 c -0.239657,0.2460874 -0.2143,0.5335257 0.06544,0.7414799 0.589734,0.4384012 1.606699,0.4355461 2.459354,-0.00672 z M 6.7786599,6.5879114 C 6.8009129,6.4173213 6.7601699,6.3563325 6.6242275,6.3563325 6.403126,6.3563325 6.2980473,6.6022422 6.446976,6.7712176 6.596927,6.9413449 6.743304,6.8604786 6.778657,6.587897 Z M 19.061207,5.9283301 c 0,-0.2285913 -0.273102,-0.1955539 -0.31272,0.037805 -0.02414,0.1424956 0.0141,0.1859519 0.1397,0.1584988 0.09517,-0.02063 0.17302,-0.1091395 0.17302,-0.1963007 z M 2.2411195,1.2450992 C 2.1687165,1.1121695 2.5594104,0.81039982 2.7984937,0.81462805 2.9707926,0.81767125 2.9638028,0.84307764 2.7253417,1.0812344 2.4425237,1.3635233 2.3269262,1.4026412 2.2411147,1.2451028 Z"
       id="path1" /></g></svg>
