<?xml version="1.0" encoding="UTF-8" standalone="no"?>
<svg
   xmlns:dc="http://purl.org/dc/elements/1.1/"
   xmlns:cc="http://creativecommons.org/ns#"
   xmlns:rdf="http://www.w3.org/1999/02/22-rdf-syntax-ns#"
   xmlns:svg="http://www.w3.org/2000/svg"
   xmlns="http://www.w3.org/2000/svg"
   xmlns:sodipodi="http://sodipodi.sourceforge.net/DTD/sodipodi-0.dtd"
   xmlns:inkscape="http://www.inkscape.org/namespaces/inkscape"
   width="100"
   height="100"
   viewBox="0 0 26.458333 26.458334"
   version="1.1"
   id="svg8"
   inkscape:version="1.0.2-2 (e86c870879, 2021-01-15)"
   sodipodi:docname="desenhando-1.svg">
  <defs
     id="defs2" />
  <sodipodi:namedview
     id="base"
     pagecolor="#ffffff"
     bordercolor="#666666"
     borderopacity="1.0"
     inkscape:pageopacity="0.0"
     inkscape:pageshadow="2"
     inkscape:zoom="2.8"
     inkscape:cx="31.060937"
     inkscape:cy="58.846094"
     inkscape:document-units="mm"
     inkscape:current-layer="layer1"
     inkscape:document-rotation="0"
     showgrid="false"
     units="px"
     inkscape:window-width="1366"
     inkscape:window-height="728"
     inkscape:window-x="0"
     inkscape:window-y="0"
     inkscape:window-maximized="0" />
  <metadata
     id="metadata5">
    <rdf:RDF>
      <cc:Work
         rdf:about="">
        <dc:format>image/svg+xml</dc:format>
        <dc:type
           rdf:resource="http://purl.org/dc/dcmitype/StillImage" />
        <dc:title></dc:title>
      </cc:Work>
    </rdf:RDF>
  </metadata>
  <g
     inkscape:label="Layer 1"
     inkscape:groupmode="layer"
     id="layer1">
    <path
       style="fill:#ffffff;stroke:none;stroke-width:0.0495602"
       d="m 6.9879777,16.383204 h 9.9616253 c 1.889291,0 3.822143,0.213358 5.501197,-0.823296 2.4124,-1.489436 2.548889,-4.436789 2.977635,-6.9576772 C 25.698192,7.0160531 25.912046,5.4281745 24.433214,4.3281879 22.973217,3.2421873 20.549915,3.6957585 18.832896,3.6957585 H 5.402047 C 5.3907672,2.3326757 4.5257697,1.1075697 3.2213909,0.68963272 2.436837,0.43825221 1.204046,0.33022608 0.96784961,1.3664227 0.68801327,2.5940721 1.9454316,2.4356273 2.626667,2.7309773 3.0705989,2.9234451 3.2563216,3.3415214 3.3127855,3.7948795 3.7321664,7.1620573 4.0991157,10.536076 4.5022732,13.905187 c 0.2626451,2.194879 0.427195,4.301937 2.3865836,5.712026 1.4794738,1.064704 3.1259682,0.978617 4.8569112,0.978617 h 7.087128 c 0.755796,0 1.865451,0.20513 2.577137,-0.05615 0.625453,-0.229665 0.854618,-1.034573 0.490203,-1.578598 -0.310844,-0.464083 -0.785335,-0.446786 -1.283168,-0.446786 H 17.79213 11.894449 c -1.058459,0 -2.2340792,0.148633 -3.2214201,-0.313369 C 7.8395231,17.810892 7.4305014,17.141381 6.9879777,16.383207 M 6.6410547,14.25211 C 6.6177588,11.439016 5.7012727,8.6403923 5.6994085,5.826853 h 12.9352465 3.221421 c 0.477416,0 1.001516,-0.08688 1.385559,0.2583577 0.629962,0.5663757 0.226887,1.6124946 0.09149,2.3187799 -0.358371,1.8696134 -0.291019,4.4277684 -2.170891,5.4793894 -1.254027,0.701527 -3.120023,0.36873 -4.509992,0.36873 H 6.6410547 m 1.3381286,7.455855 C 5.3283311,22.133937 5.9875532,26.291947 8.6234685,25.87703 8.9370362,25.82767 9.2499599,25.723143 9.5155534,25.54666 11.391562,24.299969 10.163506,21.356978 7.9791833,21.707965 m 10.5563517,0.0012 c -2.652072,0.477264 -1.945591,4.625662 0.693844,4.159101 0.358421,-0.06333 0.696372,-0.194424 0.991008,-0.411945 1.752752,-1.294119 0.396879,-4.121832 -1.684852,-3.747156 z"
       id="path24" />
  </g>
</svg>
